<svg width="148" height="20" viewBox="0 0 148 20" fill="none" xmlns="http://www.w3.org/2000/svg"><g clip-path="url(#clip0_2851_5167)"><path d="M13.8554 6.85874C12.7661 5.46862 11.422 4.77357 9.82158 4.77357C9.11772 4.77357 8.46549 4.90862 7.86488 5.17512C7.26428 5.44341 6.748 5.80715 6.31605 6.26812C5.88409 6.72909 5.54335 7.27829 5.29554 7.91393C5.04772 8.55136 4.92381 9.23742 4.92381 9.97389C4.92381 10.7104 5.04772 11.4234 5.29554 12.0591C5.54335 12.6965 5.88754 13.2493 6.32809 13.7175C6.76865 14.1856 7.28493 14.5548 7.87693 14.8231C8.46893 15.0914 9.10912 15.2246 9.79749 15.2246C11.3016 15.2246 12.656 14.5548 13.8554 13.2151V19.0438L13.3753 19.2185C12.6542 19.4868 11.9831 19.6831 11.3584 19.8091C10.7337 19.9352 10.1176 19.9982 9.51009 19.9982C8.26242 19.9982 7.06465 19.7515 5.92023 19.2581C4.77581 18.7647 3.76735 18.0697 2.89484 17.173C2.02233 16.278 1.32191 15.2138 0.793581 13.9822C0.265255 12.7505 0.00195312 11.4072 0.00195312 9.94868C0.00195312 8.49014 0.261814 7.15585 0.783256 5.9404C1.30298 4.72675 1.99995 3.67876 2.87246 2.80004C3.74498 1.92131 4.75688 1.23346 5.90991 0.740074C7.05949 0.246691 8.2693 0 9.53419 0C10.2553 0 10.9626 0.0792293 11.6595 0.239489C12.3565 0.397947 13.0879 0.646439 13.8572 0.981363V6.86054L13.8554 6.85874Z" fill="black"/><path d="M23.859 7.83854H30.6549V0.527832H35.3617V19.4726H30.6549V11.6577H23.859V19.4726H19.1539V0.527832H23.859V7.83854Z" fill="black"/><path d="M51.0376 12.4374L48.9243 6.13151L46.811 12.4374H51.0376ZM52.287 16.181H45.5633L44.4826 19.4726H39.4644L46.355 0.527832H51.4937L58.386 19.4726H53.3677L52.287 16.181Z" fill="black"/><path d="M66.4677 9.22096H68.0286C69.7581 9.22096 70.6221 8.43407 70.6221 6.86029C70.6221 5.2865 69.7581 4.49781 68.0286 4.49781H66.4677V9.22096ZM66.4677 19.4722H61.761V0.527344H69.2522C71.2846 0.527344 72.8421 1.08015 73.9228 2.18576C75.0035 3.29137 75.5439 4.84894 75.5439 6.86029C75.5439 8.87163 75.0035 10.4274 73.9228 11.533C72.8421 12.6386 71.2846 13.1914 69.2522 13.1914H66.4677V19.4722Z" fill="black"/><path d="M86.824 4.69769V19.4722H82.1173V4.69769H78.2521V0.527344H90.6892V4.69769H86.824Z" fill="black"/><path d="M104.935 4.69817H99.3407V7.86555H104.624V12.0359H99.3407V15.3023H104.935V19.4726H94.6339V0.527832H104.935V4.69817Z" fill="black"/><path d="M114.762 8.99457H115.65C116.577 8.99457 117.29 8.79289 117.787 8.39134C118.285 7.98979 118.532 7.41178 118.532 6.6573C118.532 5.90282 118.285 5.32481 117.787 4.92326C117.29 4.52171 116.579 4.32004 115.65 4.32004H114.762V8.99457ZM125.112 19.4726H119.254L114.764 12.1871V19.4726H110.057V0.527832H117.381C118.39 0.527832 119.271 0.682689 120.023 0.992404C120.775 1.30212 121.394 1.72528 121.883 2.26187C122.37 2.79847 122.738 3.4179 122.988 4.12196C123.236 4.82602 123.36 5.5787 123.36 6.3836C123.36 7.82413 123.028 8.99276 122.363 9.8877C121.699 10.7844 120.718 11.3913 119.422 11.71L125.113 19.4744L125.112 19.4726Z" fill="black"/><path d="M146.133 15.8657H146.11C145.449 15.8747 144.871 16.2421 144.548 16.7931C144.369 17.0938 144.267 17.4449 144.267 17.8194C144.267 18.5739 144.675 19.2276 145.274 19.5517C145.532 19.6939 145.825 19.7732 146.134 19.7732C146.444 19.7732 146.737 19.6939 146.995 19.5517C147.594 19.2276 148.002 18.5739 148.002 17.8194C148.002 16.7408 147.165 15.8657 146.134 15.8657" fill="black"/><path d="M140.543 0.223145C138.206 0.223145 135.972 1.39538 134.568 3.36171C133.647 4.64738 133.136 6.17795 133.093 7.78414L133.086 8.03984H137.366L137.38 7.80755C137.485 6.06811 138.876 4.7068 140.543 4.7068C142.211 4.7068 143.711 6.19415 143.711 8.02183C143.711 8.94017 143.36 9.79549 142.717 10.4329C142.612 10.5356 136.829 15.925 134.36 18.2262L133.023 19.4723H139.473L139.54 19.4092C140.579 18.4387 145.458 13.8848 145.553 13.7948C147.107 12.3182 147.998 10.2132 147.998 8.02183C147.998 3.72184 144.653 0.223145 140.541 0.223145" fill="black"/></g><defs><clipPath id="clip0_2851_5167"><rect width="148" height="20" fill="white"/></clipPath></defs></svg>
